<svg width="448" height="64" viewBox="0 0 448 64" fill="none" xmlns="http://www.w3.org/2000/svg">
	<path d="M448 0H0V64H448V0Z" fill="#E21B22"/>
	<path fill-rule="evenodd" clip-rule="evenodd" d="M417.408 29.5398H422.911L421.824 34.8147H413.108L411.165 44.151H421.732L422.541 40.2764H429.478L427.489 49.6127H398.31L399.489 44.0576H402.633L407.512 20.9037H404.391L405.524 15.3487H434.773L432.923 24.1481H425.986L426.68 20.9037H416.113L414.264 29.5164L417.408 29.5398ZM420.414 9H427.744L422.68 13.0379H416.946L420.414 9ZM173.543 40.2064H165.96L165.173 44.0576H157.728L162.607 20.9037H167.254L168.387 15.372H151.532L150.376 20.9037H153.52L148.641 44.0576H145.497L144.318 49.6127H171.578L173.543 40.2064ZM187.695 39.9264H198.84L199.256 44.1977H195.764L194.585 49.7528H209.499L210.678 44.1977H208.736L204.389 15.4888H193.915L177.406 44.1977H175.371L174.192 49.7528H187.834L189.036 44.1977H185.383L187.695 39.9264ZM190.863 34.6748L196.99 22.561L198.03 34.6748H190.863ZM241.313 40.2064H248.874L246.909 49.6127H219.648L220.851 44.0576H223.972L228.851 20.9037H225.729L226.862 15.372H243.741L242.608 20.9037H237.961L233.082 44.0576H240.504L241.313 40.2064ZM256.042 20.9037H259.441L254.562 44.0576H251.164L249.984 49.6127H265.892L267.071 44.0576H263.672L268.551 20.9037H271.973L273.106 15.372H257.175L256.042 20.9037ZM278.563 20.927H275.442L276.575 15.372H294.933C300.575 15.372 304.783 17.3326 303.465 23.7046C303.107 25.8318 302.087 27.7886 300.553 29.2911C299.019 30.7936 297.05 31.7636 294.933 32.0605C299.558 32.4106 301.523 35.5149 300.529 40.2531C299.049 47.2553 293.592 49.5893 287.141 49.5893H269.384L270.563 44.0342H273.754L278.563 20.927ZM285.685 44.2677C287.102 44.4032 288.518 43.9997 289.655 43.1362C290.793 42.2727 291.57 41.0114 291.835 39.5995C292.598 35.9817 291.234 34.6747 287.719 34.6747H284.158L282.124 44.2443L285.685 44.2677ZM288.205 29.4464C291.557 29.4464 293.638 28.3493 294.401 24.7782C295.164 21.2071 293.13 20.6003 290.101 20.6003H287.141L285.245 29.5164L288.205 29.4464ZM325.061 29.5164H319.558H316.344L318.193 20.9037H328.76L328.066 24.148H335.072L336.899 15.372H307.673L306.517 20.9037H309.661L304.783 44.0809H301.638L300.459 49.6127H329.708L331.743 40.2064H324.667L323.881 44.0809H313.292L315.257 34.7914H318.471H323.951L325.061 29.5164ZM352.945 39.2961C352.667 36.962 352.482 35.7017 349.823 35.7017H347.742L345.985 44.0809H349.291L348.112 49.636H332.852L334.031 44.0809H337.153L342.054 20.927H338.91L340.066 15.372H358.563C365.245 15.372 368.321 18.0561 367.003 24.3581C365.87 29.7731 362.725 32.1539 357.477 32.9708V33.1809C361.222 33.5076 362.309 34.3245 362.54 38.059L362.956 44.0809H365.754L364.575 49.636H354.286L352.945 39.2961ZM351.326 30.45C352.84 30.5609 354.342 30.1025 355.541 29.1631C356.74 28.2238 357.553 26.8698 357.823 25.3617C358.494 22.1641 357.13 20.927 354.17 20.927H350.771L348.736 30.45H351.326ZM390.241 20.9037H394.033L393.316 24.148H400.599L402.472 15.372H371.188L369.339 24.148H376.645L377.339 20.9037H381.131L376.252 44.0576H372.46L371.281 49.6127H387.952L389.131 44.0576H385.339L390.241 20.9037ZM14.0513 34.8007V30.313C19.4355 28.5152 25.7164 23.131 26.6176 15.0569H31.1053C30.2041 24.0276 24.8198 28.5152 20.3321 30.313H50.8445V34.8007H20.3089C24.7965 36.5846 30.1808 41.0816 31.0821 50.0569H26.5944C25.7164 41.9782 19.4355 36.5939 14.0513 34.8007Z" fill="white"/>
</svg>