<svg width="318" height="64" viewBox="0 0 318 64" fill="none" xmlns="http://www.w3.org/2000/svg">
<g clip-path="url(#clip0)">
<path d="M317.091 0H0V64H317.091V0Z" fill="#E21B22"/>
<path fill-rule="evenodd" clip-rule="evenodd" d="M291.911 30.4829H286.408L283.263 30.4595L285.113 21.8469H295.68L294.986 25.0912H301.923L303.772 16.2918H274.523L273.39 21.8469H276.512L271.633 45.0008H268.489L267.309 50.5558H296.489L298.478 41.2196H291.541L290.732 45.0941H280.165L282.107 35.7579H290.824L291.911 30.4829ZM296.743 9.94312H289.414L285.945 13.981H291.68L296.743 9.94312ZM34.9593 41.1495H42.5432L40.5778 50.5558H13.3174L14.4966 45.0007H17.6411L22.5198 21.8468H19.3753L20.5313 16.3151H37.3871L36.2541 21.8468H31.6066L26.728 45.0007H34.1731L34.9593 41.1495ZM67.8393 40.8695H56.6946L54.3825 45.1409H58.0357L56.8333 50.6959H43.1916L44.3708 45.1409H46.4055L62.9144 16.4319H73.3885L77.7354 45.1409H79.6776L78.4984 50.6959H63.5849L64.7641 45.1409H68.2555L67.8393 40.8695ZM65.9895 23.5041L59.8623 35.6179H67.03L65.9895 23.5041ZM117.874 41.1495H110.313L109.504 45.0007H102.082L106.96 21.8468H111.608L112.741 16.3151H95.862L94.7291 21.8468H97.8505L92.9718 45.0007H89.8504L88.6481 50.5558H115.908L117.874 41.1495ZM128.441 21.8468H125.042L126.175 16.3151H142.106L140.973 21.8468H137.551L132.672 45.0007H136.071L134.892 50.5558H118.984L120.163 45.0007H123.562L128.441 21.8468ZM144.441 21.8702H147.563L142.753 44.9774H139.563L138.383 50.5324H156.141C162.592 50.5324 168.049 48.1984 169.528 41.1962C170.523 36.458 168.557 33.3538 163.933 33.0036C166.05 32.7067 168.019 31.7367 169.553 30.2342C171.087 28.7317 172.107 26.7749 172.465 24.6477C173.783 18.2757 169.575 16.3151 163.933 16.3151H145.574L144.441 21.8702ZM158.655 44.0793C157.517 44.9428 156.101 45.3463 154.684 45.2108L151.124 45.1875L153.158 35.6178H156.719C160.233 35.6178 161.598 36.9249 160.835 40.5427C160.57 41.9545 159.793 43.2158 158.655 44.0793ZM163.401 25.7213C162.638 29.2925 160.557 30.3895 157.205 30.3895L154.245 30.4595L156.141 21.5434H159.101C162.129 21.5434 164.164 22.1502 163.401 25.7213ZM188.557 30.4595H194.06L192.95 35.7345H187.471H184.257L182.291 45.024H192.881L193.667 41.1495H200.742L198.708 50.5558H169.459L170.638 45.024H173.783L178.661 21.8468H175.517L176.673 16.3151H205.899L204.072 25.0911H197.066L197.76 21.8468H187.193L185.343 30.4595H188.557ZM218.823 36.6448C221.482 36.6448 221.667 37.9051 221.944 40.2392L223.285 50.5791H233.575L234.754 45.024H231.956L231.54 39.0022C231.309 35.2677 230.222 34.4507 226.476 34.124V33.9139C231.725 33.097 234.869 30.7163 236.002 25.3012C237.32 18.9993 234.245 16.3151 227.563 16.3151H209.066L207.91 21.8702H211.054L206.152 45.024H203.031L201.852 50.5791H217.112L218.291 45.024H214.985L216.742 36.6448H218.823ZM224.541 30.1063C223.341 31.0456 221.84 31.504 220.326 31.3931H217.736L219.771 21.8702H223.17C226.129 21.8702 227.494 23.1072 226.823 26.3049C226.553 27.8129 225.74 29.1669 224.541 30.1063ZM263.032 21.8468H259.24L254.339 45.0007H258.131L256.951 50.5558H240.281L241.46 45.0007H245.252L250.13 21.8468H246.339L245.645 25.0911H238.338L240.188 16.3151H271.472L269.599 25.0911H262.316L263.032 21.8468Z" fill="white"/>
</g>
<defs>
<clipPath id="clip0">
<rect width="318" height="64" fill="white"/>
</clipPath>
</defs>
</svg>
