<?xml version="1.0" standalone="no"?>
<!DOCTYPE svg PUBLIC "-//W3C//DTD SVG 20010904//EN"
 "http://www.w3.org/TR/2001/REC-SVG-20010904/DTD/svg10.dtd">
<svg version="1.0" xmlns="http://www.w3.org/2000/svg"
 width="256.000000pt" height="256.000000pt" viewBox="0 0 256.000000 256.000000"
 preserveAspectRatio="xMidYMid meet">
<metadata>
Created by potrace 1.14, written by Peter Selinger 2001-2017
</metadata>
<g transform="translate(0.000000,256.000000) scale(0.100000,-0.100000)"
fill="#000000" stroke="none">
<path d="M0 1280 l0 -1280 1280 0 1280 0 0 1280 0 1280 -1280 0 -1280 0 0
-1280z m1811 975 c3 -2 -9 -73 -26 -157 l-31 -153 -132 -3 c-114 -2 -132 -5
-136 -20 -3 -9 -64 -294 -136 -632 -72 -338 -133 -623 -136 -633 -5 -16 8 -17
207 -15 l213 3 21 105 21 105 209 3 c115 1 212 -1 216 -5 7 -7 -94 -503 -106
-524 -10 -15 -1545 -12 -1545 3 0 7 14 79 32 160 l32 148 87 0 c75 0 88 3 93
18 3 9 64 294 136 632 72 338 133 623 136 633 5 15 -4 17 -86 17 -82 0 -91 2
-86 18 2 9 16 76 31 147 14 72 28 136 30 143 3 9 108 12 478 12 261 0 476 -2
478 -5z"/>
</g>
</svg>
